<svg xmlns="http://www.w3.org/2000/svg" viewBox="0 0 512 512" role="img" aria-labelledby="title">
  <title id="title">Mr Manager</title>
  <defs>
    <linearGradient id="panel" x1="0" y1="0" x2="1" y2="1">
      <stop offset="0" stop-color="#151f2b"/>
      <stop offset="1" stop-color="#080c12"/>
    </linearGradient>
    <linearGradient id="accent" x1="0" y1="0" x2="1" y2="1">
      <stop offset="0" stop-color="#67e8f9"/>
      <stop offset="1" stop-color="#22b8c7"/>
    </linearGradient>
  </defs>
  <rect width="512" height="512" rx="108" fill="#070a0f"/>
  <rect x="58" y="58" width="396" height="396" rx="76" fill="url(#panel)" stroke="#29394b" stroke-width="8"/>
  <path d="M116 153h280M116 359h280" stroke="#263748" stroke-width="7" stroke-linecap="round"/>
  <path d="M164 122v268M348 122v268" stroke="#1d2a38" stroke-width="5" stroke-linecap="round"/>
  <path d="M112 329V195h38l31 48 31-48h38v134h-43v-65l-26 40-26-40v65Z" fill="url(#accent)"/>
  <path d="M262 329V195h38l31 48 31-48h38v134h-43v-65l-26 40-26-40v65Z" fill="#d9f9fb" opacity=".94"/>
  <circle cx="116" cy="116" r="11" fill="#5fdb9b"/>
  <circle cx="396" cy="396" r="11" fill="#32c8d3"/>
</svg>
